<?xml version="1.0" encoding="UTF-8"?>
<svg id="Layer_1" data-name="Layer 1" xmlns="http://www.w3.org/2000/svg" viewBox="0 0 155.31 96.7">
  <defs>
    <style>
      .cls-1 {
        stroke: gray;
      }

      .cls-1, .cls-2 {
        stroke-width: 2px;
      }

      .cls-1, .cls-2, .cls-3, .cls-4, .cls-5, .cls-6, .cls-7, .cls-8, .cls-9 {
        stroke-miterlimit: 10;
      }

      .cls-1, .cls-10 {
        fill: gray;
      }

      .cls-2, .cls-3, .cls-4 {
        stroke: #000;
      }

      .cls-4 {
        stroke-width: .75px;
      }

      .cls-5 {
        stroke: #666;
      }

      .cls-5, .cls-6, .cls-7, .cls-8, .cls-9 {
        fill: #999;
      }

      .cls-11 {
        fill: #666;
      }

      .cls-6 {
        stroke: #00a99d;
      }

      .cls-6, .cls-7, .cls-8, .cls-9 {
        stroke-width: .1px;
      }

      .cls-7 {
        stroke: #ed1c24;
      }

      .cls-12 {
        fill: #333;
      }

      .cls-13 {
        fill: #1a1a1a;
      }

      .cls-14 {
        fill: #b3b3b3;
      }

      .cls-8 {
        stroke: #29abe2;
      }

      .cls-9 {
        stroke: #ed1e79;
      }
    </style>
  </defs>
  <path class="cls-2" d="M28.47,83c0,8.32-3.5,12.69-10.66,12.69-6.42,0-9.08-3.8-9.67-7.75h2.52c.89,3.59,3.7,5.3,7.25,5.3,6.42,0,8.19-4.37,8.19-10.97v-2.7c-1.33,3.38-3.75,5.2-8.24,5.2-5.77,0-10.22-4.94-10.22-13,0-8.74,4.74-13.63,10.56-13.63,5.03,0,7.2,2.5,7.9,4.58.05-1.51.1-3.33.15-3.95h2.32c0,.94-.1,5.05-.1,7.54v16.7ZM10.26,71.66c0,6.19,3.11,10.66,7.85,10.66,6.17,0,8.04-4.32,8.04-11.08s-1.97-10.66-7.9-10.66-8,5.15-8,11.08Z"/>
  <path class="cls-2" d="M53.04,79.83c0,2.29.2,4.11.35,4.94h-2.37c-.2-.62-.35-1.77-.44-4-.84,1.92-3.01,4.63-8.09,4.63-5.72,0-8.19-3.9-8.19-7.8,0-5.72,4.19-8.32,11.6-8.32h4.69v-2.65c0-2.6-.74-6.09-6.37-6.09-4.98,0-5.72,2.76-6.27,4.89h-2.47c.3-2.86,1.97-7.28,8.78-7.28,5.63,0,8.78,2.5,8.78,8.22v13.47ZM50.63,71.51h-4.84c-5.48,0-8.88,1.51-8.88,5.98,0,3.28,2.22,5.51,5.67,5.51,7.06,0,8.04-4.94,8.04-10.56v-.94Z"/>
  <path class="cls-2" d="M101.51,71.77c.06,6.71,3.75,10.87,9.2,10.87s7.16-2.76,8.18-4.89h2.9c-1.19,3.43-4.2,7.33-11.19,7.33-8.64,0-11.99-6.81-11.99-13.42,0-7.44,4.03-13.84,12.33-13.84,8.75,0,11.53,6.92,11.53,11.81,0,.73,0,1.46-.06,2.13h-20.91ZM119.52,69.48c-.06-5.15-3.12-9.21-8.69-9.21-5.85,0-8.52,3.75-9.15,9.21h17.84Z"/>
  <path class="cls-2" d="M129.82,77.59c.95,3.38,3.53,5.41,7.95,5.41,4.98,0,6.99-2.13,6.99-5.05s-1.34-4.42-7.61-5.83c-7.22-1.61-9.01-3.64-9.01-7.07s2.91-6.92,9.23-6.92,9.35,3.59,9.79,7.28h-2.8c-.5-2.19-2.35-4.89-7.11-4.89s-6.26,2.24-6.26,4.32c0,2.39,1.34,3.59,6.88,4.84,7.89,1.77,9.85,4.16,9.85,8.06,0,4.73-4.14,7.65-10.01,7.65-6.38,0-9.96-3.12-10.74-7.8h2.85Z"/>
  <path class="cls-2" d="M1.07,20.04c0-2.24,0-4.68-.05-6.71h2.42c.05.88.15,3.12.1,4.63,1.04-2.6,3.31-5.25,7.4-5.25,3.45,0,6.17,1.82,7.16,5.15,1.23-2.7,3.7-5.15,8.04-5.15,3.8,0,7.75,2.29,7.75,9.52v17.11h-2.47v-16.8c0-3.49-1.18-7.28-5.77-7.28s-6.96,4.06-6.96,9.1v14.98h-2.42v-16.75c0-3.8-1.09-7.33-5.63-7.33-4.79,0-7.11,4.47-7.11,9.78v14.3H1.07v-19.3Z"/>
  <path class="cls-2" d="M41.14,13.33c4.98,14.88,7.16,21.01,7.99,23.82h.05c.99-3.17,2.96-9.21,7.75-23.82h2.57l-9.28,27.52c-2.62,7.7-4.39,9.41-8.83,9.41-.89,0-1.48-.05-2.27-.16v-2.6c.74.1,1.43.16,2.22.16,3.55,0,4.69-1.82,6.51-7.18l-9.43-27.15h2.71Z"/>
  <path class="cls-2" d="M64.63,13.54h4.59V5.43h2.47v8.11h5.87v2.44h-5.87v16.9c0,2.91.59,4.58,2.96,4.58.74,0,1.78-.05,2.57-.31v2.29c-.84.36-2.02.47-3.06.47-3.16,0-4.93-1.66-4.93-5.82V15.99h-4.59v-2.44Z"/>
  <path class="cls-2" d="M85.59,1v16.7c1.38-2.7,3.8-4.99,8.14-4.99,3.5,0,8.34,1.87,8.34,10.09v16.54h-2.47v-16.02c0-5.15-2.22-8.06-6.32-8.06-4.89,0-7.7,3.17-7.7,9.57v14.51h-2.47V1h2.47Z"/>
  <path class="cls-2" d="M136.58,31.85c.94,3.38,3.49,5.41,7.86,5.41,4.93,0,6.92-2.13,6.92-5.05s-1.33-4.42-7.53-5.83c-7.14-1.61-8.92-3.64-8.92-7.07s2.88-6.92,9.14-6.92,9.25,3.59,9.69,7.28h-2.77c-.5-2.19-2.33-4.89-7.03-4.89s-6.2,2.24-6.2,4.32c0,2.39,1.33,3.59,6.81,4.84,7.81,1.77,9.75,4.16,9.75,8.06,0,4.73-4.1,7.65-9.91,7.65-6.31,0-9.86-3.12-10.63-7.8h2.82Z"/>
  <path class="cls-2" d="M66.5,76.57s-1.41,9.75-5.09,8.46-2.16-20.53,2.54-24.21c3.76-2.95,18.89,0,18.89,0"/>
  <path class="cls-2" d="M108.69,35.21c.12-.9,1.24-8.83,6.33-11.52,1.26-.67,2.68-.98,2.68-.98,2.67-.58,5.54-.11,7.36.98,4.45,2.66,4.29,10,4.35,9.99.07-.01.89-12.51-6.37-16.79-3.27-1.92-7.7-1.91-10.86,0-4.98,3.01-7.05,10.87-3.48,18.32Z"/>
  <rect class="cls-2" x="62.61" y="63.71" width="24.57" height="12.26"/>
  <path class="cls-3" d="M65.88,59.51s.69-.79,1.73-1c.62-.12,1.37-.04,2.18.55"/>
  <ellipse class="cls-5" cx="70.91" cy="73.15" rx="1.72" ry="1.8"/>
  <path class="cls-2" d="M87.45,76.57s1.41,9.75,5.09,8.46,2.16-20.53-2.54-24.21c-3.76-2.95-18.89,0-18.89,0"/>
  <ellipse class="cls-5" cx="82.84" cy="73.15" rx="1.72" ry="1.8"/>
  <path class="cls-3" d="M88.47,59.59s-.69-.79-1.73-1c-.62-.12-1.37-.04-2.18.55"/>
  <circle class="cls-11" cx="66.32" cy="65.66" r="4.17"/>
  <circle class="cls-11" cx="87.17" cy="65.39" r="4.17"/>
  <circle class="cls-14" cx="87.17" cy="62.91" r="1.22"/>
  <circle class="cls-14" cx="89.72" cy="65.35" r="1.22"/>
  <circle class="cls-14" cx="87.17" cy="67.83" r="1.22"/>
  <circle class="cls-14" cx="84.73" cy="65.39" r="1.22"/>
  <g>
    <polygon class="cls-14" points="66.26 66.14 66.88 66.9 65.69 66.9 66.26 66.14"/>
    <rect class="cls-14" x="65.69" y="66.9" width="1.2" height="1.58"/>
  </g>
  <g>
    <polygon class="cls-14" points="66.29 65.3 65.67 64.55 66.86 64.55 66.29 65.3"/>
    <rect class="cls-14" x="65.67" y="62.97" width="1.2" height="1.58"/>
  </g>
  <g>
    <polygon class="cls-14" points="67.06 65.66 67.82 66.28 67.82 65.09 67.06 65.66"/>
    <rect class="cls-14" x="67.82" y="65.09" width="1.58" height="1.19"/>
  </g>
  <g>
    <polygon class="cls-14" points="65.6 65.69 64.84 66.31 64.84 65.12 65.6 65.69"/>
    <rect class="cls-14" x="63.26" y="65.12" width="1.58" height="1.19"/>
  </g>
  <polygon class="cls-6" points="86.27 63.45 86.34 63.45 88.07 63.45 87.21 61.99 86.27 63.45"/>
  <rect class="cls-9" x="84" y="64.66" width="1.46" height="1.46"/>
  <circle class="cls-7" cx="89.72" cy="65.35" r=".88"/>
  <g>
    <path class="cls-8" d="M87.92,68.63c-.5-.53-.99-1.07-1.49-1.6"/>
    <path class="cls-8" d="M86.43,68.63c.5-.53.99-1.07,1.49-1.6"/>
  </g>
  <circle class="cls-1" cx="76.87" cy="74.95" r=".08"/>
  <line class="cls-4" x1="70.81" y1="58.88" x2="83.04" y2="58.88"/>
  <polyline class="cls-10" points="71.71 67.46 81.25 67.46 84.29 58.99 69.3 58.99"/>
  <path class="cls-13" d="M66.76,79.63c-.66,2.29-1.01,3.06-1.32,3.65-.29.54-.47.89-.82,1.28-.4.45-1.18,1.34-2.38,1.36-.97.01-1.84-.55-2.36-1.3-.19-.27-.32-.54-.47-.94-.48-1.29-1.23-3.91-.78-4.22.55-.36,1.78,3.38,3.77,3.43,2.53.07,4.56-5.89,4.94-5.64.1.07-.12.83-.56,2.37Z"/>
  <path class="cls-12" d="M66.4,81.17c-.62,1.81-.95,2.43-1.25,2.89-.27.43-.45.7-.77,1.02-.37.36-1.11,1.06-2.24,1.07-.91,0-1.73-.44-2.22-1.02-.18-.22-.3-.43-.44-.75-.49-1.12-1.13-3.13-.74-3.34.51-.27,1.75,3.15,3.66,3.17,2.35.03,4.21-5.08,4.52-4.91.09.05-.11.66-.53,1.87Z"/>
  <path class="cls-13" d="M87.18,79.62c.66,2.29,1.01,3.06,1.32,3.65.29.54.47.89.82,1.28.4.45,1.18,1.34,2.38,1.36.97.01,1.84-.55,2.36-1.3.19-.27.32-.54.47-.94.48-1.29,1.23-3.91.78-4.22-.55-.36-1.78,3.38-3.77,3.43-2.53.07-4.56-5.89-4.94-5.64-.1.07.12.83.56,2.37Z"/>
  <path class="cls-12" d="M87.54,81.17c.62,1.81.95,2.43,1.25,2.89.27.43.45.7.77,1.02.37.36,1.11,1.06,2.24,1.07.91,0,1.73-.44,2.22-1.02.18-.22.3-.43.44-.75.49-1.12,1.13-3.13.74-3.34-.51-.27-1.75,3.15-3.66,3.17-2.35.03-4.21-5.08-4.52-4.91-.09.05.11.66.53,1.87Z"/>
</svg>